<svg width="20" height="20" viewBox="0 0 20 20" fill="none" xmlns="http://www.w3.org/2000/svg">
<path d="M7.50004 16.6667C7.50004 17.5917 6.75837 18.3333 5.83337 18.3333C4.90837 18.3333 4.16671 17.5917 4.16671 16.6667C4.16671 15.7417 4.91671 15 5.83337 15C6.75004 15 7.50004 15.75 7.50004 16.6667ZM14.1667 15C13.25 15 12.5 15.75 12.5 16.6667C12.5 17.5833 13.25 18.3333 14.1667 18.3333C15.0834 18.3333 15.8334 17.5917 15.8334 16.6667C15.8334 15.7417 15.0917 15 14.1667 15ZM5.97504 12.2917L6.00004 12.1917L6.75004 10.8333H12.9584C13.5834 10.8333 14.1334 10.4917 14.4167 9.975L17.6334 4.13334L16.1834 3.33334H16.175L15.2584 5L12.9584 9.16667H7.10837L7.00004 8.94167L5.13337 5L4.34171 3.33334L3.55837 1.66667H0.833374V3.33334H2.50004L5.50004 9.65834L4.37504 11.7C4.24171 11.9333 4.16671 12.2083 4.16671 12.5C4.16671 12.942 4.3423 13.366 4.65486 13.6785C4.96742 13.9911 5.39135 14.1667 5.83337 14.1667H15.8334V12.5H6.18337C6.07504 12.5 5.97504 12.4083 5.97504 12.2917ZM15 2.3L13.825 1.11667L9.79171 5.15L7.63337 2.99167L6.45837 4.16667L9.79171 7.5L15 2.3Z" fill="black"/>
</svg>
