<svg width="20" height="20" viewBox="0 0 20 20" fill="none" xmlns="http://www.w3.org/2000/svg">
<path d="M14.6475 15.8333L10.675 11.8617C9.80761 12.4339 8.75871 12.6639 7.73146 12.5071C6.7042 12.3503 5.77167 11.8179 5.11446 11.013C4.45724 10.208 4.1221 9.18785 4.17393 8.15C4.22576 7.11214 4.66087 6.13043 5.39502 5.39499C6.13032 4.66057 7.11202 4.22517 8.14997 4.17312C9.18792 4.12106 10.2083 4.45606 11.0133 5.11323C11.8184 5.7704 12.351 6.70297 12.5079 7.73031C12.6648 8.75766 12.4348 9.80666 11.8625 10.6742L15.8333 14.6475L14.6475 15.8333ZM8.36168 5.84499C7.69422 5.84455 7.05392 6.10928 6.58164 6.58093C6.10936 7.05258 5.84379 7.69253 5.84335 8.35999C5.84291 9.02745 6.10763 9.66775 6.57929 10.14C7.05094 10.6123 7.69089 10.8779 8.35835 10.8783C8.68884 10.8785 9.01614 10.8137 9.32156 10.6874C9.62698 10.5611 9.90454 10.3759 10.1384 10.1424C10.3722 9.90885 10.5578 9.63154 10.6845 9.32629C10.8112 9.02103 10.8765 8.69382 10.8767 8.36333C10.8769 8.03283 10.812 7.70553 10.6858 7.40011C10.5595 7.09469 10.3743 6.81714 10.1407 6.58329C9.90721 6.34944 9.6299 6.16388 9.32464 6.0372C9.01939 5.91052 8.69218 5.84521 8.36168 5.84499Z" fill="#F2534B"/>
</svg>
