<svg width="18" height="18" viewBox="0 0 18 18" fill="none" xmlns="http://www.w3.org/2000/svg">
<g clip-path="url(#clip0_3_15)">
<path d="M1.79993 4.6H16.1999M15.2999 4.6L14.5196 15.5278C14.4873 15.9819 14.2841 16.4069 13.9509 16.7172C13.6178 17.0275 13.1794 17.2 12.7241 17.2H5.27573C4.82045 17.2 4.38209 17.0275 4.04892 16.7172C3.71576 16.4069 3.51255 15.9819 3.48023 15.5278L2.69993 4.6H15.2999ZM7.19993 8.2V13.6V8.2ZM10.7999 8.2V13.6V8.2ZM11.6999 4.6V1.9C11.6999 1.66131 11.6051 1.43239 11.4363 1.2636C11.2675 1.09482 11.0386 1 10.7999 1H7.19993C6.96123 1 6.73231 1.09482 6.56353 1.2636C6.39475 1.43239 6.29993 1.66131 6.29993 1.9V4.6H11.6999Z" stroke="black" stroke-width="2" stroke-linecap="round" stroke-linejoin="round"/>
</g>
<defs>
<clipPath id="clip0_3_15">
<rect width="18" height="18" fill="white"/>
</clipPath>
</defs>
</svg>
